<?xml version="1.0" standalone="no"?>
<!DOCTYPE svg PUBLIC "-//W3C//DTD SVG 20010904//EN"
 "http://www.w3.org/TR/2001/REC-SVG-20010904/DTD/svg10.dtd">
<svg version="1.0" xmlns="http://www.w3.org/2000/svg"
 width="277.000000pt" height="277.000000pt" viewBox="0 0 277.000000 277.000000"
 preserveAspectRatio="xMidYMid meet">
<metadata>
Created by potrace 1.14, written by Peter Selinger 2001-2017
</metadata>
<g transform="translate(0.000000,277.000000) scale(0.100000,-0.100000)"
fill="#000000" stroke="none">
<path d="M1035 2113 c-179 -3 -245 -14 -179 -28 98 -22 130 -39 196 -105 56
-55 76 -86 125 -188 32 -67 61 -122 64 -122 4 0 9 82 13 183 3 100 9 201 12
225 6 40 5 42 -17 40 -13 -2 -109 -4 -214 -5z"/>
<path d="M386 2101 c-3 -5 10 -18 29 -30 19 -11 44 -35 55 -53 19 -32 20 -50
20 -548 0 -499 -1 -516 -20 -548 -11 -18 -36 -40 -55 -48 -19 -8 -35 -19 -35
-24 0 -6 87 -10 235 -10 129 0 235 4 235 8 0 5 -18 17 -40 27 -22 10 -49 33
-60 50 -19 31 -20 51 -20 583 0 476 2 553 15 566 8 8 15 19 15 25 0 14 -366
15 -374 2z"/>
<path d="M1573 1783 c-172 -175 -312 -323 -313 -328 0 -6 28 -39 63 -73 43
-42 70 -62 87 -62 20 0 96 71 340 315 l315 315 -75 75 c-41 41 -81 75 -90 75
-8 0 -155 -142 -327 -317z m365 207 c23 -22 42 -45 42 -52 0 -11 -28 -40 -205
-209 -44 -42 -140 -137 -214 -212 -73 -76 -136 -137 -140 -137 -4 0 -25 19
-48 43 l-42 42 276 283 c152 155 279 282 282 282 3 0 25 -18 49 -40z"/>
<path d="M1813 1543 c-172 -175 -313 -322 -313 -326 0 -5 28 -40 61 -78 47
-52 68 -69 88 -69 21 0 88 62 339 313 171 171 312 317 312 322 0 16 -144 155
-160 155 -8 0 -156 -142 -327 -317z m407 151 c0 -7 -30 -41 -67 -76 -37 -35
-163 -157 -280 -273 l-213 -209 -45 44 -45 45 282 280 283 280 43 -40 c23 -21
42 -45 42 -51z"/>
<path d="M1108 1652 c-36 -100 -104 -151 -235 -176 -34 -6 -62 -15 -63 -21 0
-5 36 -17 81 -27 113 -24 151 -52 195 -145 20 -40 38 -73 42 -73 4 0 7 84 7
187 0 104 3 214 8 246 9 73 -11 78 -35 9z"/>
<path d="M2053 1298 c-172 -172 -313 -320 -313 -328 0 -22 132 -150 155 -150
11 0 73 55 153 138 74 75 215 219 313 319 99 100 179 184 179 186 0 14 -142
147 -156 147 -11 0 -152 -134 -331 -312z m372 201 c23 -26 34 -47 31 -57 -3
-10 -38 -46 -77 -82 -40 -36 -162 -154 -272 -262 -110 -109 -203 -198 -208
-198 -4 0 -26 17 -48 38 l-39 37 281 283 c155 155 285 282 288 282 4 0 23 -18
44 -41z"/>
</g>
</svg>
