<?xml version="1.0" standalone="no"?>
<!DOCTYPE svg PUBLIC "-//W3C//DTD SVG 20010904//EN"
 "http://www.w3.org/TR/2001/REC-SVG-20010904/DTD/svg10.dtd">
<svg version="1.0" xmlns="http://www.w3.org/2000/svg"
 width="500.000000pt" height="500.000000pt" viewBox="0 0 500.000000 500.000000"
 preserveAspectRatio="xMidYMid meet">
<metadata>
Created by potrace 1.14, written by Peter Selinger 2001-2017
</metadata>
<g transform="translate(0.000000,500.000000) scale(0.100000,-0.100000)"
fill="#000000" stroke="none">
<path d="M0 2500 l0 -2500 2500 0 2500 0 0 2500 0 2500 -2500 0 -2500 0 0
-2500z m3720 1025 c0 -197 -12 -256 -24 -122 -13 147 -57 216 -163 258 -56 22
-71 23 -405 27 l-348 4 0 -391 0 -391 278 0 c289 1 328 6 374 47 27 24 39 56
47 122 3 30 12 56 19 59 9 3 12 -50 12 -243 0 -193 -3 -246 -12 -243 -7 3 -16
29 -19 60 -8 70 -38 120 -87 144 -33 17 -68 19 -324 22 l-288 3 0 -397 0 -396
328 5 c259 4 339 8 387 21 127 35 180 101 198 252 6 46 15 84 19 84 4 0 8 -85
8 -190 l0 -190 -660 0 c-418 0 -660 4 -660 10 0 5 23 12 51 16 31 4 62 16 78
30 l26 22 3 684 c2 375 0 711 -3 745 -9 85 -27 105 -98 111 l-57 4 -2 -178
c-3 -185 -17 -238 -30 -112 -9 98 -16 121 -48 172 -34 53 -96 89 -185 105 -34
6 -189 11 -372 11 l-313 0 0 -391 0 -390 293 3 c271 3 294 4 326 23 50 30 71
64 84 138 6 37 15 67 19 67 4 0 8 -110 8 -245 0 -135 -4 -245 -9 -245 -4 0
-13 30 -19 67 -13 78 -33 108 -88 137 -36 20 -59 21 -326 24 l-288 3 0 -338
c0 -186 5 -356 10 -378 11 -50 27 -61 95 -70 30 -3 55 -11 55 -16 0 -5 -111
-9 -270 -9 -159 0 -270 4 -270 9 0 5 25 13 56 17 68 8 90 28 99 86 3 24 5 361
3 750 l-3 707 -22 22 c-16 16 -38 24 -77 27 -53 4 -65 10 -49 25 3 4 599 7
1325 7 l1318 0 0 -195z m-2307 -1882 c-27 -4 -33 -9 -33 -29 0 -20 5 -24 33
-26 l32 -1 -32 -4 c-27 -4 -33 -9 -33 -29 0 -13 -4 -24 -10 -24 -6 0 -10 27
-10 60 l0 60 43 -2 c36 -1 38 -2 10 -5z m187 -53 c0 -33 -4 -60 -10 -60 -6 0
-10 27 -10 60 0 33 4 60 10 60 6 0 10 -27 10 -60z m234 38 c7 -12 6 -24 -3
-42 -11 -21 -12 -28 -1 -41 8 -10 9 -15 1 -15 -6 0 -16 9 -23 20 -7 11 -21 20
-30 20 -11 0 -18 -8 -18 -20 0 -11 -4 -20 -10 -20 -6 0 -10 27 -10 61 l0 60
41 -3 c26 -2 46 -10 53 -20z m219 -34 c16 -31 25 -59 22 -63 -4 -3 -11 2 -16
12 -13 22 -79 24 -79 2 0 -8 -5 -15 -11 -15 -6 0 -8 9 -3 23 11 36 44 97 52
97 4 0 20 -25 35 -56z m232 46 c4 -6 -6 -9 -26 -8 -45 4 -48 -18 -4 -36 29
-12 36 -20 33 -38 -2 -18 -10 -24 -37 -26 -18 -2 -39 2 -45 8 -8 9 -2 11 24 8
25 -2 35 1 38 13 2 11 -7 18 -28 22 -35 7 -48 30 -30 52 14 17 66 20 75 5z
m353 3 c-30 -3 -38 -9 -38 -24 0 -14 7 -19 30 -19 17 0 30 -4 30 -10 0 -5 -13
-10 -30 -10 -20 0 -30 -5 -30 -15 0 -10 11 -15 35 -15 19 0 35 -4 35 -10 0 -5
-20 -10 -45 -10 l-45 0 0 60 0 60 48 -2 c43 -1 44 -2 10 -5z m242 -2 c0 -6
-12 -9 -26 -8 -40 3 -40 -20 0 -37 37 -15 45 -33 24 -54 -15 -15 -65 -16 -74
0 -5 8 0 9 15 5 26 -6 51 1 51 14 0 5 -16 15 -35 23 -33 14 -46 42 -28 59 10
11 73 8 73 -2z m230 -6 c7 -8 10 -21 7 -28 -3 -8 -1 -20 3 -27 17 -28 -8 -50
-55 -50 l-45 0 0 60 0 60 39 0 c22 0 44 -6 51 -15z m233 -42 c25 -58 26 -83 3
-50 -16 21 -72 23 -80 2 -3 -8 -10 -15 -15 -15 -5 0 3 27 17 60 15 33 32 60
38 60 6 0 23 -26 37 -57z m167 -3 c0 -33 -4 -60 -10 -60 -6 0 -10 27 -10 60 0
33 4 60 10 60 6 0 10 -27 10 -60z"/>
<path d="M1760 1610 c0 -30 11 -37 44 -24 24 9 19 41 -6 48 -36 9 -38 8 -38
-24z"/>
<path d="M2006 1604 c-10 -26 -7 -34 15 -34 15 0 19 4 15 16 -3 9 -6 20 -6 25
0 15 -17 10 -24 -7z"/>
<path d="M3040 1620 c0 -15 7 -20 24 -20 29 0 44 19 25 31 -25 16 -49 10 -49
-11z"/>
<path d="M3040 1560 c0 -22 20 -26 51 -9 26 14 15 29 -22 29 -22 0 -29 -5 -29
-20z"/>
<path d="M3293 1607 c-13 -28 -8 -37 19 -37 21 0 22 7 5 38 l-13 23 -11 -24z"/>
</g>
</svg>
